<svg xlink="http://www.w3.org/1999/xlink" viewBox="0 0 5000 5000" xmlns="http://www.w3.org/2000/svg" style="transform: scale(1);"><defs><filter id="goo"><feGaussianBlur in="SourceGraphic" stdDeviation="0" result="blur"></feGaussianBlur><feColorMatrix in="blur" type="matrix" values="1 0 0 0 0 0 1 0 0 0 0 0 1 0 0 0 0 0 19 -9" result="good"></feColorMatrix><feComposite in="SourceGraphic" in2="goo" operator="atop"></feComposite></filter><path d="M268,237L272,251L254,272C234,269 225,250 235,234C248,238 254,239 268,237z" id="P0"></path><path d="M271,284Q239,309 219,275Q194,228 243,211C255,229 264,234 285,231C293,250 288,271 271,284z" id="P1"></path><path d="M216,229C223,218 235,211 247,210C257,230 264,234 285,231C271,258 257,272 229,284L216,229z" id="P2"></path><path d="M206,229C217,210 237,199 256,201C278,206 294,222 298,241C301,263 290,283 274,293C253,302 231,299 216,286C201,269 198,247 206,229z" id="P3"></path><path d="M339,221L232,342L181,186L339,221z" id="P4"></path><path d="M304,250C302,275 351,372 287,393C278,397 260,329 250,329C235,330 197,384 175,368C124,330 40,277 58,201C65,163 131,163 159,140C172,127 227,202 237,200C260,195 367,89 413,160C432,191 305,243 304,250z" id="P5"></path><path d="M326,354L319,359L130,203L226,123L326,354z" id="P6"></path><path d="M88,314L186,88C262,157 305,174 412,186C343,262 326,305 314,412C226,436 140,402 88,314z" id="P7"></path><path d="M215,248L241,216Q278,206 285,246L235,282C236,263 233,257 215,248z" id="P8"></path><path d="M225,270C232,249 238,237 252,218L279,236C267,252 263,261 260,280C249,267 243,265 225,270z" id="P9"></path><path d="M273,244C275,260 264,272 250,274C236,272 226,261 226,247L246,226C258,225 269,232 273,244z" id="P10"></path><path d="M287,285C270,301 247,304 228,296C208,285 197,264 199,244C204,221 221,204 240,200C264,197 285,208 295,225C304,247 301,270 287,285z" id="P11"></path><path d="M375,266L176,352L204,133L375,266z" id="P12"></path><path d="M183,342C164,330 96,348 82,305C77,294 99,279 98,260C101,180 196,176 234,167C250,162 268,155 285,163C302,168 360,133 376,158C401,190 355,237 350,269C348,289 294,278 285,287C267,302 235,371 183,342z" id="P13"></path><path d="M184,292L173,235L321,217L310,300L184,292z" id="P14"></path><path d="M191,400Q31,353 100,191C195,183 234,165 309,100L400,309Q353,469 191,400z" id="P15"></path><path d="M250,286L220,231Q224,203 245,214Q294,218 284,261C278,276 264,286 250,286z" id="P16"></path><path d="M277,237C266,253 261,262 256,279C246,266 240,262 224,264C234,250 236,242 234,225L277,237z" id="P17"></path><path d="M278,255L243,277L232,228C248,235 256,236 275,237L278,255z" id="P18"></path><path d="M242,310C216,304 196,284 191,261C188,234 201,209 221,197C246,186 274,190 291,206C310,226 314,254 304,276C291,299 266,312 242,310z" id="P19"></path><path d="M135,111L428,216L183,418L135,111z" id="P20"></path><path d="M326,245C328,265 376,309 358,329C344,351 294,319 274,325C255,332 235,331 212,319C198,313 168,318 157,294C143,264 196,240 204,225C211,213 177,135 202,128C217,121 234,126 258,127C321,138 322,210 326,245z" id="P21"></path><path d="M363,130L403,189L219,412L86,271L363,130z" id="P22"></path><path d="M98,334C156,250 168,205 166,98L402,166Q503,315 334,402C250,344 205,332 98,334z" id="P23"></path><path d="M256,226C261,227 265,229 269,234L258,274C244,263 237,255 227,241C233,229 245,223 256,226z" id="P24"></path><path d="M220,258L240,221Q284,218 279,260C261,262 254,266 244,280C232,278 223,269 220,258z" id="P25"></path><path d="M218,256Q205,229 234,221Q265,203 281,238C267,258 256,268 232,278Q210,279 218,256z" id="P26"></path><path d="M293,267C284,286 265,297 247,296C226,293 210,279 205,261C202,241 210,221 225,211C244,201 265,203 279,215C295,229 299,250 293,267z" id="P27"></path><path d="M127,380L195,80L423,295L127,380z" id="P28"></path><path d="M181,103C229,80 275,121 310,140C325,147 358,135 375,159C400,191 320,241 317,259C315,280 294,291 281,298C272,305 262,314 254,313C238,314 202,353 175,329C145,299 43,263 64,189C78,141 134,126 181,103z" id="P29"></path><path d="M54,250L125,99L440,299L375,401L54,250z" id="P30"></path><path d="M121,112L388,121Q534,250 379,388C301,448 199,448 112,379C151,275 151,225 121,112z" id="P31"></path></defs><rect id="RECT" width="5000" height="5000" fill="#E87461"></rect><g id="group" fill="#DA5B48" filter="" opacity="0.95"><use x="-7" y="-87" href="#P22"></use><use x="-148" y="211" href="#P31"></use><use x="-77" y="784" href="#P15"></use><use x="-232" y="1035" href="#P23"></use><use x="52" y="1619" href="#P19"></use><use x="99" y="1964" href="#P21"></use><use x="-34" y="2309" href="#P0"></use><use x="-10" y="3001" href="#P27"></use><use x="-16" y="3134" href="#P22"></use><use x="19" y="3634" href="#P14"></use><use x="43" y="4230" href="#P24"></use><use x="-190" y="4663" href="#P9"></use><use x="140" y="5133" href="#P19"></use><use x="113" y="5610" href="#P2"></use><use x="383" y="149" href="#P9"></use><use x="279" y="559" href="#P10"></use><use x="191" y="854" href="#P2"></use><use x="343" y="1213" href="#P21"></use><use x="526" y="1766" href="#P14"></use><use x="193" y="2048" href="#P16"></use><use x="564" y="2364" href="#P13"></use><use x="400" y="2954" href="#P7"></use><use x="363" y="3258" href="#P2"></use><use x="226" y="3701" href="#P4"></use><use x="394" y="4087" href="#P24"></use><use x="195" y="4402" href="#P22"></use><use x="386" y="4788" href="#P24"></use><use x="204" y="5593" href="#P21"></use><use x="807" y="149" href="#P11"></use><use x="701" y="190" href="#P25"></use><use x="978" y="957" href="#P30"></use><use x="774" y="1133" href="#P27"></use><use x="758" y="1551" href="#P22"></use><use x="632" y="2038" href="#P7"></use><use x="992" y="2589" href="#P22"></use><use x="630" y="2803" href="#P14"></use><use x="698" y="3214" href="#P4"></use><use x="970" y="3815" href="#P28"></use><use x="724" y="4111" href="#P17"></use><use x="720" y="4458" href="#P5"></use><use x="667" y="5023" href="#P18"></use><use x="804" y="5529" href="#P7"></use><use x="1420" y="-198" href="#P9"></use><use x="1085" y="195" href="#P4"></use><use x="1120" y="882" href="#P1"></use><use x="1241" y="1022" href="#P22"></use><use x="1377" y="1775" href="#P30"></use><use x="1052" y="1904" href="#P17"></use><use x="1128" y="2660" href="#P13"></use><use x="1028" y="3083" href="#P13"></use><use x="1216" y="3268" href="#P22"></use><use x="1127" y="3545" href="#P12"></use><use x="1089" y="4315" href="#P18"></use><use x="1238" y="4607" href="#P8"></use><use x="1382" y="4787" href="#P2"></use><use x="1409" y="5488" href="#P25"></use><use x="1685" y="-35" href="#P5"></use><use x="1486" y="181" href="#P28"></use><use x="1497" y="880" href="#P24"></use><use x="1825" y="1142" href="#P13"></use><use x="1630" y="1436" href="#P8"></use><use x="1570" y="1990" href="#P16"></use><use x="1493" y="2276" href="#P1"></use><use x="1454" y="2796" href="#P15"></use><use x="1514" y="3392" href="#P25"></use><use x="1854" y="3696" href="#P14"></use><use x="1478" y="4343" href="#P3"></use><use x="1661" y="4494" href="#P3"></use><use x="1843" y="5027" href="#P13"></use><use x="1599" y="5193" href="#P23"></use><use x="1871" y="-243" href="#P5"></use><use x="2273" y="516" href="#P6"></use><use x="2008" y="951" href="#P0"></use><use x="2025" y="1411" href="#P1"></use><use x="1967" y="1718" href="#P30"></use><use x="1875" y="1861" href="#P0"></use><use x="2160" y="2358" href="#P14"></use><use x="2270" y="2779" href="#P5"></use><use x="2062" y="3449" href="#P3"></use><use x="2161" y="3547" href="#P5"></use><use x="1877" y="4015" href="#P12"></use><use x="1990" y="4639" href="#P17"></use><use x="2175" y="5018" href="#P14"></use><use x="1976" y="5603" href="#P25"></use><use x="2295" y="103" href="#P5"></use><use x="2628" y="409" href="#P11"></use><use x="2500" y="811" href="#P10"></use><use x="2339" y="1370" href="#P21"></use><use x="2373" y="1447" href="#P8"></use><use x="2333" y="2019" href="#P25"></use><use x="2578" y="2618" href="#P31"></use><use x="2542" y="2974" href="#P8"></use><use x="2379" y="3303" href="#P14"></use><use x="2702" y="3758" href="#P7"></use><use x="2329" y="4200" href="#P13"></use><use x="2633" y="4426" href="#P24"></use><use x="2352" y="4971" href="#P22"></use><use x="2703" y="5558" href="#P2"></use><use x="2735" y="131" href="#P15"></use><use x="2863" y="317" href="#P9"></use><use x="2747" y="936" href="#P14"></use><use x="2755" y="1205" href="#P29"></use><use x="3032" y="1687" href="#P0"></use><use x="2849" y="2051" href="#P6"></use><use x="3043" y="2546" href="#P31"></use><use x="3128" y="2768" href="#P3"></use><use x="2873" y="3312" href="#P8"></use><use x="3073" y="3544" href="#P31"></use><use x="3065" y="4003" href="#P1"></use><use x="3048" y="4681" href="#P3"></use><use x="3051" y="4942" href="#P10"></use><use x="3123" y="5571" href="#P1"></use><use x="3212" y="-100" href="#P28"></use><use x="3195" y="435" href="#P17"></use><use x="3534" y="746" href="#P3"></use><use x="3258" y="1161" href="#P20"></use><use x="3164" y="1470" href="#P26"></use><use x="3458" y="1999" href="#P0"></use><use x="3456" y="2403" href="#P20"></use><use x="3192" y="2881" href="#P26"></use><use x="3241" y="3491" href="#P4"></use><use x="3512" y="3825" href="#P20"></use><use x="3144" y="4048" href="#P21"></use><use x="3548" y="4515" href="#P30"></use><use x="3237" y="5055" href="#P23"></use><use x="3436" y="5253" href="#P26"></use><use x="3735" y="48" href="#P21"></use><use x="3835" y="398" href="#P19"></use><use x="3947" y="632" href="#P7"></use><use x="3677" y="1072" href="#P12"></use><use x="3562" y="1469" href="#P27"></use><use x="3746" y="2003" href="#P2"></use><use x="3908" y="2556" href="#P9"></use><use x="3934" y="2788" href="#P0"></use><use x="3634" y="3432" href="#P10"></use><use x="3937" y="3728" href="#P10"></use><use x="3847" y="4174" href="#P0"></use><use x="3939" y="4576" href="#P17"></use><use x="3812" y="5040" href="#P26"></use><use x="3944" y="5294" href="#P3"></use><use x="4198" y="132" href="#P22"></use><use x="4168" y="365" href="#P13"></use><use x="4257" y="911" href="#P3"></use><use x="4316" y="1348" href="#P11"></use><use x="4045" y="1612" href="#P4"></use><use x="4404" y="1962" href="#P19"></use><use x="4268" y="2580" href="#P23"></use><use x="4311" y="2813" href="#P0"></use><use x="4000" y="3296" href="#P31"></use><use x="4064" y="3752" href="#P29"></use><use x="4049" y="4111" href="#P8"></use><use x="4097" y="4383" href="#P5"></use><use x="4351" y="5181" href="#P24"></use><use x="4287" y="5427" href="#P26"></use><use x="4673" y="-68" href="#P30"></use><use x="4785" y="276" href="#P8"></use><use x="4760" y="710" href="#P1"></use><use x="4485" y="1185" href="#P3"></use><use x="4696" y="1706" href="#P9"></use><use x="4681" y="2039" href="#P31"></use><use x="4414" y="2431" href="#P8"></use><use x="4619" y="3073" href="#P28"></use><use x="4820" y="3495" href="#P19"></use><use x="4443" y="3558" href="#P9"></use><use x="4730" y="4277" href="#P14"></use><use x="4665" y="4680" href="#P18"></use><use x="4516" y="4969" href="#P28"></use><use x="4803" y="5270" href="#P13"></use><use x="5014" y="29" href="#P1"></use><use x="5083" y="547" href="#P17"></use><use x="4934" y="780" href="#P8"></use><use x="4854" y="1298" href="#P13"></use><use x="4894" y="1770" href="#P11"></use><use x="5244" y="1868" href="#P21"></use><use x="5136" y="2452" href="#P23"></use><use x="4970" y="2871" href="#P5"></use><use x="5186" y="3439" href="#P31"></use><use x="4905" y="3805" href="#P13"></use><use x="5213" y="4060" href="#P20"></use><use x="5001" y="4548" href="#P9"></use><use x="5100" y="4803" href="#P11"></use><use x="5165" y="5373" href="#P0"></use></g></svg>